<?xml version="1.0" standalone="no"?>
<!DOCTYPE svg PUBLIC "-//W3C//DTD SVG 20010904//EN"
 "http://www.w3.org/TR/2001/REC-SVG-20010904/DTD/svg10.dtd">
<svg version="1.0" xmlns="http://www.w3.org/2000/svg"
 width="552.000000pt" height="306.000000pt" viewBox="0 0 552.000000 306.000000"
 preserveAspectRatio="xMidYMid meet">

<g transform="translate(0.000000,306.000000) scale(0.100000,-0.100000)"
fill="#000000" stroke="none">
<path d="M0 1530 l0 -1530 2760 0 2760 0 0 1530 0 1530 -2760 0 -2760 0 0
-1530z m1654 1108 c15 -40 31 -75 35 -78 8 -5 80 -139 128 -235 48 -97 117
-230 134 -260 42 -72 79 -145 79 -157 0 -7 16 -44 35 -82 19 -39 35 -73 35
-78 0 -4 -90 -8 -199 -8 l-199 0 -13 33 c-7 17 -20 52 -29 77 l-17 45 -206 3
-206 2 -14 -32 c-8 -18 -23 -54 -33 -80 l-19 -48 -192 0 c-182 0 -193 1 -193
19 0 21 20 69 51 121 24 39 65 121 165 325 37 77 75 151 85 165 9 14 35 61 58
105 23 44 46 87 50 95 5 8 16 33 26 55 38 91 23 85 228 85 l183 0 28 -72z
m1394 40 c52 -15 103 -35 116 -47 12 -11 27 -21 33 -21 5 0 22 -11 37 -25 15
-14 31 -25 36 -25 4 0 22 -21 38 -46 36 -53 49 -137 38 -242 -6 -55 -13 -74
-44 -115 -20 -28 -62 -66 -93 -87 l-56 -36 26 -30 c14 -16 37 -45 51 -63 14
-19 44 -54 68 -79 23 -25 42 -49 42 -54 0 -5 9 -18 20 -30 11 -12 20 -25 20
-30 0 -4 -93 -8 -207 -8 l-208 1 -27 40 c-16 21 -28 44 -28 49 0 6 -4 10 -9
10 -4 0 -32 31 -62 70 -52 66 -56 69 -96 70 l-43 0 0 -120 0 -120 -197 2 -198
3 -3 470 c-1 259 0 476 3 484 4 11 62 12 328 9 305 -5 327 -6 415 -30z m1520
-105 l3 -133 -161 0 -160 0 -2 -347 -3 -348 -192 -3 -193 -2 0 350 0 350 -165
0 -165 0 0 128 c0 71 3 132 7 135 3 4 236 6 517 5 l511 -3 3 -132z m-1633
-1128 c231 -22 356 -37 810 -96 88 -12 271 -27 407 -33 135 -6 249 -14 252
-17 12 -12 -322 -18 -474 -9 -85 5 -240 14 -345 20 -207 11 -322 22 -515 47
-93 12 -203 17 -425 16 -283 0 -307 -1 -425 -25 -69 -14 -143 -29 -165 -32
-44 -7 -111 -28 -275 -83 -25 -8 -71 -28 -104 -44 -32 -17 -60 -28 -63 -26
-17 17 231 136 317 153 19 3 62 16 95 29 95 36 243 75 330 87 44 5 105 14 135
18 95 13 269 11 445 -5z m1735 -195 c166 -17 326 -46 335 -60 2 -4 -17 -3 -43
2 -78 16 -423 11 -557 -7 -66 -9 -158 -20 -205 -25 -160 -17 -339 -45 -429
-66 -37 -9 -102 -19 -146 -24 -44 -5 -165 -18 -270 -30 -104 -12 -253 -24
-330 -26 -252 -8 -455 -9 -455 -3 0 3 39 9 88 13 48 3 128 10 177 15 50 5 142
14 205 21 63 6 162 18 220 27 58 8 134 20 170 25 36 5 94 13 130 18 36 5 101
14 145 21 44 6 141 24 215 40 74 15 203 35 285 44 83 8 164 17 180 19 65 7
195 5 285 -4z m-772 -15 c-3 -3 -36 -9 -74 -15 -38 -5 -121 -21 -184 -35 -159
-34 -173 -30 -20 7 158 38 294 59 278 43z m-240 -22 c-10 -2 -28 -2 -40 0 -13
2 -5 4 17 4 22 1 32 -1 23 -4z m-108 -14 c-25 -4 -61 -7 -80 -7 -32 1 -31 2
10 8 25 4 61 7 80 7 31 0 30 0 -10 -8z m-1765 -27 c-3 -3 -11 0 -18 7 -9 10
-8 11 6 5 10 -3 15 -9 12 -12z m1550 2 c-55 -7 -116 -13 -135 -12 -47 1 133
25 190 25 25 1 0 -5 -55 -13z m-305 -24 c-36 -4 -87 -7 -115 -7 l-50 0 55 7
c30 4 82 7 115 7 l60 0 -65 -7z m385 -1 c-22 -4 -49 -8 -60 -7 -16 0 -15 2 5
8 14 4 41 8 60 8 l35 0 -40 -9z m1343 1 c116 -12 239 -38 255 -54 7 -7 19 -17
29 -22 43 -24 122 -110 133 -145 6 -16 -6 -9 -43 27 -75 74 -127 102 -228 121
-171 31 -387 22 -839 -37 -220 -29 -439 -50 -505 -50 -26 0 -31 3 -20 10 8 5
30 10 48 10 18 0 92 14 165 30 369 84 356 82 597 105 175 16 288 17 408 5z
m-3356 -7 c-40 -2 -103 -2 -140 0 -37 2 -4 3 73 3 77 0 107 -2 67 -3z m-323
-7 c-2 -2 -31 -6 -64 -9 -37 -3 -51 -2 -35 3 25 8 107 13 99 6z m669 -3 c-26
-2 -71 -2 -100 0 -29 2 -8 3 47 3 55 0 79 -1 53 -3z m977 -3 c-33 -4 -105 -7
-160 -7 l-100 1 90 6 c50 3 122 6 160 7 l70 0 -60 -7z m510 -1 c-22 -4 -51 -8
-65 -7 -35 1 34 15 75 16 25 0 23 -2 -10 -9z m-1297 -6 c-27 -2 -69 -2 -95 0
-27 2 -5 3 47 3 52 0 74 -1 48 -3z m-1088 -24 c-100 -31 -110 -32 -45 -5 33
14 71 25 85 25 14 0 -4 -9 -40 -20z m2215 11 c-72 -14 -286 -40 -323 -39 -40
1 284 47 333 47 25 0 23 -2 -10 -8z m-1540 -29 c39 -3 -67 -6 -235 -6 -168 0
-282 3 -255 6 68 8 403 8 490 0z m-864 -41 c-35 -17 -66 -30 -70 -29 -10 1
113 59 124 59 6 -1 -19 -14 -54 -30z m244 20 c-16 -4 -39 -8 -50 -8 -16 0 -15
2 5 8 14 4 36 8 50 8 22 0 22 -1 -5 -8z m888 3 c-24 -2 -62 -2 -85 0 -24 2 -5
4 42 4 47 0 66 -2 43 -4z m646 -11 c-179 -12 -264 -13 -410 -4 l-184 10 165
-3 c91 -2 230 0 310 4 80 4 190 8 245 8 69 0 29 -5 -126 -15z m-1612 -8 c-3
-3 -12 -4 -19 -1 -8 3 -5 6 6 6 11 1 17 -2 13 -5z m-62 -19 c-16 -8 -37 -14
-45 -14 -8 0 1 7 20 14 46 18 64 17 25 0z m3752 -6 c67 -16 103 -30 103 -39 0
-5 15 -13 34 -20 46 -15 146 -122 146 -156 0 -4 -15 6 -32 22 -49 46 -114 89
-178 120 -28 14 -67 17 -200 17 l-165 0 -90 -43 c-55 -27 -105 -60 -131 -87
l-42 -43 11 32 c42 116 257 224 424 213 39 -3 93 -10 120 -16z m-3972 -34
c-16 -13 -25 -24 -20 -25 6 0 -10 -12 -34 -25 -24 -14 -46 -23 -48 -21 -3 3
12 14 34 25 21 11 34 20 29 21 -10 0 53 50 63 50 3 0 -7 -11 -24 -25z m96 5
c-24 -11 -46 -18 -49 -15 -6 6 57 34 78 34 8 0 -5 -8 -29 -19z m348 16 c-2 -2
-33 -6 -69 -9 -41 -3 -54 -2 -35 3 31 8 112 13 104 6z m626 -6 l70 -7 -80 0
c-44 -1 -123 3 -175 7 l-95 7 105 0 c58 0 137 -3 175 -7z m-778 -16 c-3 -3
-12 -4 -19 -1 -8 3 -5 6 6 6 11 1 17 -2 13 -5z m951 -1 c-15 -2 -42 -2 -60 0
-18 2 -6 4 27 4 33 0 48 -2 33 -4z m-1001 -10 c-9 -2 -15 -8 -12 -12 4 -7 -86
-23 -93 -17 -4 5 92 35 108 34 10 0 9 -2 -3 -5z m1233 -2 l85 -8 -75 0 c-41 0
-104 3 -140 7 l-65 7 55 0 c30 1 93 -2 140 -6z m-1575 -31 c-16 -11 -30 -24
-30 -30 0 -13 -65 -56 -65 -43 0 4 -4 3 -8 -3 -7 -12 -117 -84 -127 -84 -3 0
-5 5 -5 10 0 6 6 10 13 10 7 0 26 14 42 30 16 17 34 30 40 30 6 0 22 11 35 25
23 24 47 35 35 15 -8 -13 5 -13 25 0 13 8 13 10 0 10 -15 0 48 49 65 49 6 1
-3 -8 -20 -19z m200 12 c-19 -4 -19 -5 -1 -11 13 -5 0 -12 -45 -23 -35 -9 -73
-19 -84 -22 -11 -4 11 9 50 29 38 19 76 34 85 34 9 -1 7 -3 -5 -7z m935 -2
c38 -6 22 -7 -55 -3 -60 3 -112 7 -114 9 -7 7 112 2 169 -6z m1023 3 c-7 -2
-19 -2 -25 0 -7 3 -2 5 12 5 14 0 19 -2 13 -5z m105 0 c-15 -2 -42 -2 -60 0
-18 2 -6 4 27 4 33 0 48 -2 33 -4z m397 -3 c-16 -4 -48 -8 -70 -7 l-40 0 40 7
c22 4 54 7 70 7 l30 1 -30 -8z m-1905 -20 c0 -5 -24 -10 -52 -10 -29 0 -64 -3
-78 -7 -14 -3 -22 -3 -18 2 4 4 31 11 60 15 77 11 88 11 88 0z m905 -11 c174
-7 169 -7 -55 -2 -135 3 -276 9 -315 13 -50 6 -35 7 55 3 69 -3 211 -9 315
-14z m840 11 c-27 -5 -68 -8 -90 -8 -38 1 -38 1 10 8 28 4 68 7 90 7 38 0 37
0 -10 -7z m-1655 -10 c13 -9 13 -10 0 -9 -8 0 -24 4 -35 9 l-20 9 20 0 c11 0
27 -4 35 -9z m1478 -7 c-21 -2 -57 -2 -80 0 -24 2 -7 4 37 4 44 0 63 -2 43 -4z
m-1768 -13 c-35 -24 -54 -31 -30 -11 14 11 30 21 35 21 6 0 3 -5 -5 -10z m411
-28 c52 -36 119 -96 119 -106 0 -6 -82 40 -128 70 -26 18 -29 23 -15 27 13 3
5 10 -27 25 -31 14 -38 21 -24 21 11 1 45 -16 75 -37z m-212 24 c-3 -3 -53
-12 -174 -31 -16 -3 -3 3 30 14 52 16 156 29 144 17z m121 -22 l35 -14 -35 6
c-19 3 -51 10 -70 14 l-35 8 35 0 c19 0 51 -6 70 -14z m-355 -31 c-16 -8 -38
-22 -48 -31 -9 -8 -20 -13 -23 -10 -3 3 -17 -5 -31 -18 -40 -37 -39 -21 0 20
35 35 62 51 37 21 -18 -22 -6 -18 36 10 20 14 42 25 48 25 6 -1 -2 -8 -19 -17z
m-770 -73 c-3 -5 -12 -10 -18 -10 -7 0 -6 4 3 10 19 12 23 12 15 0z m35 -77
c-24 -3 -48 -10 -52 -16 -5 -8 -8 -6 -8 6 0 14 8 17 53 15 l52 -1 -45 -4z
m183 -7 c50 -21 69 -48 64 -93 l-4 -38 -1 42 c-2 34 -8 46 -32 63 -16 11 -49
25 -72 29 -32 7 -36 9 -15 10 15 1 42 -5 60 -13z m382 -6 c17 -11 26 -20 22
-20 -4 0 -18 7 -32 16 -18 12 -46 15 -129 12 -58 -2 -106 0 -106 5 0 4 48 7
108 7 90 0 112 -3 137 -20z m274 13 l-137 -4 -11 -47 -10 -47 5 44 c2 24 7 48
10 53 3 4 67 7 142 6 l137 -2 -136 -3z m310 -20 c6 -16 15 -38 21 -51 17 -40
-6 -15 -25 28 -16 36 -21 40 -56 40 -36 0 -38 -2 -47 -42 -6 -24 -20 -78 -31
-122 -26 -98 -26 -103 2 -108 41 -7 56 2 63 40 4 20 13 50 19 66 l12 29 28
-57 c22 -44 32 -56 51 -56 21 0 70 43 109 96 21 29 29 10 16 -40 -18 -74 -17
-78 31 -74 35 2 43 7 49 28 6 23 7 23 8 3 2 -45 -8 -53 -65 -53 -61 0 -62 2
-40 73 8 26 11 47 7 47 -5 0 -27 -22 -51 -49 -28 -32 -51 -48 -66 -48 -18 0
-28 10 -46 48 -25 56 -35 61 -43 22 -19 -91 -16 -88 -73 -91 -29 -2 -52 0 -52
3 0 6 27 115 57 233 l16 62 48 0 c42 0 48 -3 58 -27z m290 5 c-1 -17 -2 -19
-6 -5 -3 11 -14 17 -36 17 -24 0 -43 -12 -81 -47 -54 -52 -54 -51 1 14 33 38
42 43 80 43 38 0 43 -2 42 -22z m190 5 c0 -10 -5 -27 -10 -38 -7 -15 -8 -12
-3 13 l6 32 -50 0 -49 0 -11 -42 -11 -43 5 40 c3 22 8 43 10 47 3 5 30 8 60 8
45 0 54 -3 53 -17z m182 -10 c-5 -26 -6 -26 -9 -5 -3 19 -9 22 -47 22 l-44 0
-17 -57 c-10 -32 -18 -86 -18 -120 -1 -51 3 -65 19 -78 20 -16 20 -16 -1 -6
-12 6 -24 18 -28 27 -10 26 -7 88 8 140 8 27 17 61 20 77 6 26 9 27 65 27 l58
0 -6 -27z m223 0 c-32 -143 -61 -219 -90 -238 -31 -20 -45 -20 -16 1 31 21 46
54 75 162 l26 92 -52 0 -52 0 -22 -91 c-23 -97 -43 -129 -79 -129 -38 0 -57
28 -50 73 4 22 11 47 17 56 10 15 9 5 -6 -79 -3 -20 14 -40 35 -40 30 0 49 34
72 128 l23 92 63 0 62 0 -6 -27z m179 -20 c12 -27 26 -51 31 -54 5 -4 6 -13 4
-20 -2 -7 -18 14 -34 48 -28 60 -30 62 -67 62 -22 1 -39 -4 -41 -11 -2 -7 -17
-62 -32 -121 -16 -59 -30 -104 -32 -99 -2 8 38 183 53 230 3 7 22 12 50 12 44
0 46 -1 68 -47z m307 40 c0 -5 -9 -41 -20 -82 -11 -41 -21 -84 -21 -95 -1 -17
-2 -17 -6 -4 -2 10 3 45 11 78 24 91 22 100 -17 100 -23 0 -41 -8 -58 -26 -13
-14 -37 -35 -53 -46 l-28 -21 11 21 c7 12 16 22 21 22 6 0 22 14 37 30 22 26
34 30 75 30 26 0 48 -3 48 -7z m474 -4 c19 -9 23 -16 16 -28 -24 -42 -25 -42
-63 -26 -37 15 -79 12 -104 -8 -21 -16 -15 -25 25 -38 102 -33 130 -61 117
-118 -13 -59 -143 -90 -249 -59 -22 6 -42 12 -44 13 -1 1 5 16 15 33 16 28 18
29 40 15 35 -23 135 -29 152 -9 21 26 7 40 -64 64 -80 27 -95 40 -95 80 0 28
23 57 65 80 26 15 157 15 189 1z m366 0 c0 -6 -5 -19 -10 -30 -9 -16 -22 -19
-94 -19 -81 0 -84 -1 -88 -25 -5 -25 -5 -25 68 -25 40 0 75 -4 78 -8 3 -5 2
-18 -1 -30 -5 -20 -12 -22 -77 -22 -83 0 -94 -5 -102 -48 l-6 -32 94 0 95 0
-5 -25 -4 -26 -137 3 c-115 3 -135 5 -132 18 8 35 52 208 61 243 l11 37 124 0
c82 0 125 -4 125 -11z m323 -16 c30 -23 36 -35 37 -64 0 -38 -43 -108 -67
-109 -19 0 -16 -21 7 -55 28 -42 26 -45 -22 -45 -38 0 -46 5 -72 40 -22 29
-37 40 -56 40 -23 0 -29 -6 -39 -40 -12 -39 -13 -40 -58 -40 -42 0 -45 2 -39
23 3 12 20 79 37 150 l32 127 102 0 c96 0 104 -2 138 -27z m202 -73 c16 -55
31 -100 35 -100 3 0 17 19 30 43 13 23 37 55 53 71 16 17 34 43 39 58 9 26 14
28 59 28 27 0 49 -2 49 -4 0 -3 -21 -31 -48 -63 -26 -32 -73 -97 -105 -145
l-58 -88 -44 0 -44 0 -24 83 c-14 45 -27 91 -30 102 -3 11 -12 41 -21 68 l-15
47 48 0 49 0 27 -100z m381 78 c-3 -13 -20 -80 -37 -150 l-31 -128 -39 0 c-25
0 -39 5 -39 13 0 6 11 55 25 107 14 52 25 107 25 122 0 49 9 58 57 58 42 0 45
-2 39 -22z m354 -3 l23 -25 -23 -25 -23 -24 -25 19 c-35 28 -101 27 -138 -2
-40 -31 -44 -38 -44 -79 0 -74 70 -108 145 -70 21 12 42 21 46 21 10 0 27 -46
21 -57 -12 -18 -74 -33 -133 -33 -109 0 -180 64 -164 149 6 32 40 92 56 99 4
2 20 14 36 28 25 21 37 24 114 24 78 0 87 -2 109 -25z m371 -2 c-7 -28 -9 -28
-96 -31 -87 -3 -104 -9 -105 -39 0 -9 22 -13 75 -13 65 0 75 -2 75 -17 0 -38
-16 -46 -84 -44 -66 2 -67 2 -80 -31 -8 -18 -12 -36 -10 -40 3 -5 43 -8 90 -8
83 0 90 -3 78 -34 -5 -14 -27 -16 -141 -16 -123 0 -134 1 -130 18 3 9 20 77
38 150 l33 132 132 0 132 0 -7 -27z m-4676 -43 c-9 -41 -17 -33 -9 9 4 17 9
30 11 27 3 -2 2 -19 -2 -36z m-378 8 c-3 -8 -6 -5 -6 6 -1 11 2 17 5 13 3 -3
4 -12 1 -19z m683 -37 c0 -45 -59 -117 -75 -91 -4 6 1 10 9 10 8 0 24 12 36
28 17 21 21 36 17 66 -4 26 -2 35 4 25 5 -7 9 -25 9 -38z m350 34 c0 -12 -16
-15 -84 -15 -47 0 -88 -4 -91 -10 -4 -6 22 -10 70 -10 66 0 76 -2 71 -16 -3
-9 -6 -21 -6 -28 0 -7 -6 -20 -13 -31 -11 -14 -16 -15 -22 -5 -5 8 -4 11 2 7
12 -7 23 14 23 42 0 15 -7 17 -50 13 -28 -2 -62 -1 -75 2 -22 6 -24 9 -15 26
9 18 21 20 95 20 50 0 85 4 85 10 0 6 2 10 5 10 3 0 5 -7 5 -15z m-846 -23 c2
-4 -13 -6 -35 -4 -33 4 -40 1 -48 -19 -5 -13 -10 -19 -10 -12 -2 31 12 43 49
43 22 0 41 -3 44 -8z m349 1 c-13 -2 -33 -2 -45 0 -13 2 -3 4 22 4 25 0 35 -2
23 -4z m954 -25 c-3 -8 -6 -5 -6 6 -1 11 2 17 5 13 3 -3 4 -12 1 -19z m-922
-17 c-3 -12 -10 -21 -15 -21 -4 0 -3 11 3 24 14 29 22 27 12 -3z m739 4 c-9
-14 -19 -23 -22 -20 -5 4 26 45 35 45 2 0 -4 -11 -13 -25z m362 -16 c-4 -23
-14 -68 -23 -100 l-16 -59 -65 0 c-55 0 -63 2 -58 16 4 9 13 48 22 86 9 38 18
67 21 65 5 -5 -11 -101 -22 -129 -5 -13 2 -17 35 -23 49 -8 66 3 73 48 10 54
31 137 35 137 3 0 2 -19 -2 -41z m689 11 c-16 -16 -32 -30 -37 -30 -8 0 53 59
61 60 3 0 -8 -13 -24 -30z m-2368 -2 c-3 -8 -6 -5 -6 6 -1 11 2 17 5 13 3 -3
4 -12 1 -19z m739 -70 c-19 -53 -20 -37 -3 34 7 33 13 45 15 31 2 -12 -4 -41
-12 -65z m534 57 c14 -19 14 -19 -2 -6 -10 7 -18 18 -18 24 0 6 1 8 3 6 1 -2
9 -13 17 -24z m214 -24 c-4 -17 -9 -30 -11 -27 -3 2 -2 19 2 36 9 41 17 33 9
-9z m-1128 -66 l-14 -56 40 3 c37 3 43 7 53 38 16 48 48 52 69 9 22 -44 20
-50 -5 -12 -24 38 -41 35 -58 -12 -12 -34 -14 -35 -63 -35 -47 0 -50 1 -44 23
3 12 12 49 18 82 7 33 14 50 16 38 2 -11 -4 -47 -12 -78z m-369 53 c-3 -7 -5
-2 -5 12 0 14 2 19 5 13 2 -7 2 -19 0 -25z m298 2 c-10 -11 -22 -20 -26 -20
-5 0 2 10 14 23 27 28 38 25 12 -3z m2161 -20 c-5 -27 -14 -50 -18 -50 -4 0
-8 -9 -8 -21 0 -19 5 -21 55 -17 30 1 55 0 55 -4 0 -5 -28 -8 -61 -8 l-61 0 7
48 c4 26 12 50 18 54 6 4 8 10 4 15 -5 4 -29 -14 -53 -40 -25 -26 -49 -47 -54
-47 -4 0 19 27 52 60 34 33 64 60 68 60 3 0 2 -22 -4 -50z m-191 9 c9 -17 14
-33 12 -36 -3 -2 -8 5 -12 16 -3 12 -11 21 -16 21 -5 0 -9 7 -9 15 0 23 8 18
25 -16z m-1381 13 c2 -4 -7 -8 -22 -9 -24 -2 -24 -1 -7 7 11 5 21 9 22 9 1 1
4 -3 7 -7z m53 -8 c-3 -3 -12 -4 -19 -1 -8 3 -5 6 6 6 11 1 17 -2 13 -5z
m-312 -44 c5 -18 4 -22 -4 -14 -6 6 -14 21 -16 34 -6 30 10 14 20 -20z m-410
15 c-16 -8 -52 -14 -80 -13 -50 1 -50 1 13 8 34 4 65 10 69 13 3 4 11 7 17 6
6 0 -2 -7 -19 -14z m2022 -7 c-3 -8 -6 -5 -6 6 -1 11 2 17 5 13 3 -3 4 -12 1
-19z m-1224 -5 c3 -5 -23 -7 -56 -5 -111 5 -124 9 -35 10 48 1 89 -1 91 -5z
m-990 -59 c18 3 35 5 39 5 4 1 10 10 13 22 4 11 9 19 11 16 3 -2 0 -16 -5 -31
-10 -23 -16 -26 -62 -26 -43 0 -50 3 -45 16 3 9 7 23 7 32 1 9 4 5 6 -10 4
-25 8 -27 36 -24z m2524 24 c-3 -8 -6 -5 -6 6 -1 11 2 17 5 13 3 -3 4 -12 1
-19z m-1704 -28 c127 0 157 6 157 28 0 8 3 13 6 9 3 -3 3 -15 -1 -26 -6 -20
-13 -21 -152 -21 -128 0 -144 2 -139 16 3 9 7 21 7 27 1 7 4 2 6 -10 4 -22 8
-23 116 -23z m1382 11 c-5 -18 -14 -21 -58 -19 l-52 2 49 3 c38 3 49 8 53 24
3 11 8 18 10 15 3 -2 2 -14 -2 -25z m-1565 -12 c0 -5 -27 -9 -60 -9 -33 0 -60
3 -60 8 0 4 23 5 51 3 46 -3 51 -1 45 14 -5 15 -4 16 9 5 8 -7 15 -16 15 -21z
m1655 21 c3 -5 1 -10 -4 -10 -6 0 -11 5 -11 10 0 6 2 10 4 10 3 0 8 -4 11 -10z
m-452 -27 c-7 -2 -19 -2 -25 0 -7 3 -2 5 12 5 14 0 19 -2 13 -5z m80 0 c-7 -2
-19 -2 -25 0 -7 3 -2 5 12 5 14 0 19 -2 13 -5z"/>
<path d="M1263 2668 c-6 -7 -40 -75 -78 -151 -37 -76 -73 -144 -79 -150 -6 -7
-28 -46 -49 -87 -21 -41 -45 -86 -52 -100 -8 -14 -19 -40 -26 -59 -7 -18 -22
-48 -34 -66 -13 -18 -28 -48 -34 -68 -11 -33 -49 -106 -91 -172 -35 -56 -36
-56 153 -53 l172 3 27 55 c14 30 31 67 37 83 l11 27 222 -2 c184 -3 222 -5
220 -17 -2 -8 11 -42 28 -76 l31 -62 167 -5 c92 -3 170 -3 174 -1 4 2 4 12 -1
21 -5 9 -21 47 -36 84 -15 37 -42 93 -60 123 -19 31 -44 77 -57 103 -13 26
-26 49 -29 52 -4 3 -9 15 -13 28 -4 12 -12 22 -17 22 -5 0 -9 8 -9 18 0 18
-63 147 -85 172 -14 17 -119 233 -130 268 -6 22 -9 22 -179 22 -127 0 -176 -3
-183 -12z m222 -364 c22 -43 41 -82 43 -87 1 -4 9 -21 18 -38 8 -17 13 -34 9
-37 -10 -11 -229 -9 -236 2 -4 5 13 48 37 97 24 49 44 90 44 93 0 20 23 57 33
53 6 -2 30 -39 52 -83z"/>
<path d="M1412 2317 c-6 -23 -25 -69 -41 -102 l-30 -60 86 -3 c47 -2 88 0 91
3 3 3 -7 30 -22 61 -15 30 -36 75 -46 100 -11 24 -21 44 -23 44 -3 0 -9 -19
-15 -43z"/>
<path d="M2326 2671 c-3 -4 -4 -210 -3 -457 l2 -449 180 0 180 0 1 75 c1 41 2
94 3 118 l1 42 55 0 c49 0 56 -3 72 -27 10 -16 20 -30 23 -33 11 -10 66 -78
84 -104 53 -74 34 -69 259 -67 l158 1 -20 28 c-11 15 -43 52 -71 82 -28 30
-67 79 -86 108 -40 59 -39 60 27 97 36 19 108 102 126 143 16 38 18 152 4 201
-12 40 -72 130 -86 131 -5 0 -23 11 -39 25 -16 14 -33 25 -38 25 -5 0 -21 9
-36 20 -48 36 -194 50 -508 50 -156 0 -285 -4 -288 -9z m619 -254 c48 -46 54
-68 34 -125 -7 -20 -26 -40 -54 -57 -38 -22 -55 -25 -132 -25 -48 0 -93 4 -98
8 -12 8 -21 215 -10 231 4 7 48 11 110 11 l105 0 45 -43z"/>
<path d="M2700 2336 l0 -106 68 0 c135 1 192 33 192 109 0 30 -7 44 -32 67
-31 26 -40 29 -130 32 l-98 4 0 -106z"/>
<path d="M3550 2570 l0 -110 165 0 165 0 0 -344 0 -343 163 -5 c89 -3 165 -3
170 -1 4 2 7 159 7 349 l0 344 165 0 165 0 0 110 0 110 -500 0 -500 0 0 -110z"/>
<path d="M350 879 c0 -5 5 -7 10 -4 6 3 10 8 10 11 0 2 -4 4 -10 4 -5 0 -10
-5 -10 -11z"/>
<path d="M1408 848 c6 -7 25 -21 44 -31 l33 -19 -33 31 c-32 31 -66 45 -44 19z"/>
<path d="M3741 609 c-19 -56 -16 -59 49 -59 48 0 61 4 70 19 14 27 13 37 -6
55 -9 10 -33 16 -59 16 -39 0 -44 -3 -54 -31z"/>
</g>
</svg>
